# xmcd
#
# Track frame offsets:
#	150
#	17782
#	36910
#	50935
#	67660
#	90385
#	107635
#	120460
#	134335
#	151660
#	164335
#	176635
#	189535
#	200785
#	212035
#	224110
#
# Disc length: 3182 seconds
#
# Revision: 0
# Processed by: cddbd v1.5.2PL0 Copyright (c) Steve Scherf et al.
# Submitted via: audiograbber 1.83.01
#
DISCID=e80c6c10
DTITLE=The Righteous Brothers and Roy Orbison - LEG055
DYEAR=1900
DGENRE=
TTITLE0=Righteous Bros - Unchained Melody
TTITLE1=Righteous Bros - You've Lost That Loving Feeling
TTITLE2=Righteous Bros - Ebb Tide
TTITLE3=Righteous Bros - You're My Soul And Inspiration
TTITLE4=Bill Medley - Jennifer Warnes - I've Had The Time Of My Life
TTITLE5=Righteous Bros - Rock And Roll Heaven
TTITLE6=Roy Orbison - Blue Bayou
TTITLE7=Roy Orbison - Crying
TTITLE8=Roy Orbison - You Got It
TTITLE9=Roy Orbison - Dream Baby
TTITLE10=Roy Orbison - Mean Woman Blues
TTITLE11=Roy Orbison - It's Over
TTITLE12=Roy Orbison - Ooby Dooby
TTITLE13=Roy Orbison - Running Scared
TTITLE14=Roy Orbison - Only The Lonely
TTITLE15=Roy Orbison - Oh Pretty Woman
EXTD=
EXTT0=
EXTT1=
EXTT2=
EXTT3=
EXTT4=
EXTT5=
EXTT6=
EXTT7=
EXTT8=
EXTT9=
EXTT10=
EXTT11=
EXTT12=
EXTT13=
EXTT14=
EXTT15=
PLAYORDER=
